# xmcd
#
# Track frame offsets: 
#        150
#        17029
#        39285
#        51977
#        85791
#        102745
#        138438
#        154144
#        164781
#
# Disc length: 2311 seconds
#
# Revision: 0
# Processed by: cddbd v1.5.2PL0 Copyright (c) Steve Scherf et al.
# Submitted via: ExactAudioCopy v0.99pb4
#
DISCID=76090509
DTITLE=Vic Pitts Cheaters - The Lost Tapes
DYEAR=1970
DGENRE=Funk
TTITLE0=Loose Boodie [Unreleased Version]
TTITLE1=Thank You
TTITLE2=The Trip
TTITLE3=Down by the River
TTITLE4=You Made Me Love You
TTITLE5=Coming Home Baby
TTITLE6=A Change Is Gonna Come
TTITLE7=The Girl I Love
TTITLE8=Got to Find the Love in You
EXTD=
EXTT0=
EXTT1=
EXTT2=
EXTT3=
EXTT4=
EXTT5=
EXTT6=
EXTT7=
EXTT8=
PLAYORDER=
